# xmcd
#
# Track frame offsets: 
#        150
#        20933
#        40594
#        60439
#        79523
#        98573
#        129687
#        150048
#        168530
#        196201
#
# Disc length: 2816 seconds
#
# Revision: 4
# Processed by: cddbd v1.5.2PL0 Copyright (c) Steve Scherf et al.
# Submitted via: ExactAudioCopy v1.3
#
DISCID=6e0afe0a
DTITLE=Corey Stevens - Road To Zen
DYEAR=1997
DGENRE=Blues Rock, Country Rock, Country Blues
TTITLE0=Only One For You
TTITLE1=Too Much Fun?
TTITLE2=Lessons Of Love
TTITLE3=My Neighborhood
TTITLE4=One More Time
TTITLE5=Road To Zen
TTITLE6=Take It Back
TTITLE7=Big House Blues
TTITLE8=Blues Are Here To Stay
TTITLE9=Charles Bronson Vibe
EXTD=YEAR: 1997 ID3G: 0
EXTT0=
EXTT1=
EXTT2=
EXTT3=
EXTT4=
EXTT5=
EXTT6=
EXTT7=
EXTT8=
EXTT9=
PLAYORDER=
